<mxfile host="app.diagrams.net" agent="Mozilla/5.0 (Windows NT 10.0; Win64; x64) AppleWebKit/537.36 (KHTML, like Gecko) Chrome/131.0.0.0 Safari/537.36" version="25.0.3">
  <diagram id="C5RBs43oDa-KdzZeNtuy" name="Page-1">
    <mxGraphModel dx="2206" dy="1148" grid="1" gridSize="10" guides="1" tooltips="1" connect="1" arrows="1" fold="1" page="1" pageScale="1" pageWidth="1100" pageHeight="850" math="0" shadow="0">
      <root>
        <mxCell id="WIyWlLk6GJQsqaUBKTNV-0" />
        <mxCell id="WIyWlLk6GJQsqaUBKTNV-1" parent="WIyWlLk6GJQsqaUBKTNV-0" />
        <mxCell id="zkfFHV4jXpPFQw0GAbJ--0" value="User" style="swimlane;fontStyle=2;align=center;verticalAlign=top;childLayout=stackLayout;horizontal=1;startSize=30;horizontalStack=0;resizeParent=1;resizeLast=0;collapsible=1;marginBottom=0;rounded=0;shadow=0;strokeWidth=1;fontSize=17;" parent="WIyWlLk6GJQsqaUBKTNV-1" vertex="1">
          <mxGeometry x="10" y="20" width="860" height="600" as="geometry">
            <mxRectangle x="230" y="140" width="160" height="26" as="alternateBounds" />
          </mxGeometry>
        </mxCell>
        <mxCell id="zkfFHV4jXpPFQw0GAbJ--2" value="- username: String&#xa;- name: String&#xa;- lastName: String&#xa;- password: String&#xa;- annualIncome: double&#xa;- monthlyIncome: double&#xa;- userSettings: UserSettings&#xa;- recurringExpenses: ArrayList&lt;Expense&gt;&#xa;- nonRecurringExpenses: ArrayList&lt;Expense&gt;" style="text;align=left;verticalAlign=top;spacingLeft=4;spacingRight=4;overflow=hidden;rotatable=0;points=[[0,0.5],[1,0.5]];portConstraint=eastwest;rounded=0;shadow=0;html=0;fontSize=16;" parent="zkfFHV4jXpPFQw0GAbJ--0" vertex="1">
          <mxGeometry y="30" width="860" height="140" as="geometry" />
        </mxCell>
        <mxCell id="zkfFHV4jXpPFQw0GAbJ--4" value="" style="line;html=1;strokeWidth=1;align=left;verticalAlign=middle;spacingTop=-1;spacingLeft=3;spacingRight=3;rotatable=0;labelPosition=right;points=[];portConstraint=eastwest;" parent="zkfFHV4jXpPFQw0GAbJ--0" vertex="1">
          <mxGeometry y="170" width="860" height="8" as="geometry" />
        </mxCell>
        <mxCell id="zkfFHV4jXpPFQw0GAbJ--5" value="+ User()&#xa;+ User(username: String, name: String, lastName: String, password: String, annualIncome: int, monthlyIncome: int)&#xa;+ getName(): String&#xa;+ setName(name: String): void&#xa;+ getUsername(): String&#xa;+ setUsername(username: String): void&#xa;+ getLastName(): String+ setLastName(lastName: String): void&#xa;+ getPassword(): String+ setPassword(password: String): void&#xa;+ getYearlyIncome(): double+ setYearlyIncome(annualIncome: double): void&#xa;+ getMonthlyIncome(): double+ setMonthlyIncome(monthlyIncome: double): void&#xa;+ getRecurringExpenses(): ArrayList&lt;Expense&gt;&#xa;+ getNonRecurringExpenses(): ArrayList&lt;Expense&gt;&#xa;+ getUserSettings(): UserSettings&#xa;+ addExpense(recurringExpenses: ArrayList&lt;Expense&gt;, nonRecurringExpenses: ArrayList&lt;Expense&gt;, currentExpense: Expense): void&#xa;+ findExpenses(name: String, recurring: boolean): ArrayList&lt;Expense&gt;&#xa;+ deleteExpense(recurring: boolean, index: int): void&#xa;+ editExpense(recurring: boolean, index: int, name: String, amount: Double, category: String, stillRecurring: boolean): void&#xa;+ displayRecurring(): void&#xa;+ displayNonRecurring(): void&#xa;+ displayTotals(recurring: boolean): void&#xa;+ calcTotals(recurring: boolean): double&#xa;+ totalRemaining(): double&#xa;+ toString(): String" style="text;align=left;verticalAlign=top;spacingLeft=4;spacingRight=4;overflow=hidden;rotatable=0;points=[[0,0.5],[1,0.5]];portConstraint=eastwest;fontSize=14;" parent="zkfFHV4jXpPFQw0GAbJ--0" vertex="1">
          <mxGeometry y="178" width="860" height="422" as="geometry" />
        </mxCell>
        <mxCell id="zkfFHV4jXpPFQw0GAbJ--6" value="AppSettings" style="swimlane;fontStyle=0;align=center;verticalAlign=top;childLayout=stackLayout;horizontal=1;startSize=26;horizontalStack=0;resizeParent=1;resizeLast=0;collapsible=1;marginBottom=0;rounded=0;shadow=0;strokeWidth=1;fontSize=18;" parent="WIyWlLk6GJQsqaUBKTNV-1" vertex="1">
          <mxGeometry x="440" y="1130" width="550" height="220" as="geometry">
            <mxRectangle x="130" y="380" width="160" height="26" as="alternateBounds" />
          </mxGeometry>
        </mxCell>
        <mxCell id="zkfFHV4jXpPFQw0GAbJ--7" value="-colorScheme: String&#xa;-language: String" style="text;align=left;verticalAlign=top;spacingLeft=4;spacingRight=4;overflow=hidden;rotatable=0;points=[[0,0.5],[1,0.5]];portConstraint=eastwest;fontSize=16;" parent="zkfFHV4jXpPFQw0GAbJ--6" vertex="1">
          <mxGeometry y="26" width="550" height="44" as="geometry" />
        </mxCell>
        <mxCell id="qP_oWAMBrOVo8oeJrDwM-2" value="+AppSettings()&#xa;+AppSettings(in colorScheme:String, in languageString, in name:String)&#xa;+getColorScheme(out colorScheme:String)&#xa;+setColorScheme(inout menuColor:String)&#xa;+editSettings(in currentUser:User, inout applicationSettings:AppSettings)&#xa;" style="text;align=left;verticalAlign=top;spacingLeft=4;spacingRight=4;overflow=hidden;rotatable=0;points=[[0,0.5],[1,0.5]];portConstraint=eastwest;fontSize=16;" parent="zkfFHV4jXpPFQw0GAbJ--6" vertex="1">
          <mxGeometry y="70" width="550" height="122" as="geometry" />
        </mxCell>
        <mxCell id="zkfFHV4jXpPFQw0GAbJ--9" value="" style="line;html=1;strokeWidth=1;align=left;verticalAlign=middle;spacingTop=-1;spacingLeft=3;spacingRight=3;rotatable=0;labelPosition=right;points=[];portConstraint=eastwest;" parent="zkfFHV4jXpPFQw0GAbJ--6" vertex="1">
          <mxGeometry y="192" width="550" height="8" as="geometry" />
        </mxCell>
        <mxCell id="zkfFHV4jXpPFQw0GAbJ--12" value="" style="endArrow=block;endSize=10;endFill=0;shadow=0;strokeWidth=1;rounded=0;curved=0;edgeStyle=elbowEdgeStyle;elbow=vertical;" parent="WIyWlLk6GJQsqaUBKTNV-1" edge="1">
          <mxGeometry width="160" relative="1" as="geometry">
            <mxPoint x="1058.8899999999999" y="850" as="sourcePoint" />
            <mxPoint x="1058.8899999999999" y="740" as="targetPoint" />
            <Array as="points">
              <mxPoint x="728.89" y="760" />
            </Array>
          </mxGeometry>
        </mxCell>
        <mxCell id="zkfFHV4jXpPFQw0GAbJ--17" value="UserSettings" style="swimlane;fontStyle=0;align=center;verticalAlign=top;childLayout=stackLayout;horizontal=1;startSize=30;horizontalStack=0;resizeParent=1;resizeLast=0;collapsible=1;marginBottom=0;rounded=0;shadow=0;strokeWidth=1;fontSize=20;" parent="WIyWlLk6GJQsqaUBKTNV-1" vertex="1">
          <mxGeometry x="1030" y="1130" width="620" height="250" as="geometry">
            <mxRectangle x="550" y="140" width="160" height="26" as="alternateBounds" />
          </mxGeometry>
        </mxCell>
        <mxCell id="zkfFHV4jXpPFQw0GAbJ--18" value="-monthlyIncome:Double&#xa;-yearlyIncome:Double" style="text;align=left;verticalAlign=top;spacingLeft=4;spacingRight=4;overflow=hidden;rotatable=0;points=[[0,0.5],[1,0.5]];portConstraint=eastwest;fontSize=16;" parent="zkfFHV4jXpPFQw0GAbJ--17" vertex="1">
          <mxGeometry y="30" width="620" height="44" as="geometry" />
        </mxCell>
        <mxCell id="zkfFHV4jXpPFQw0GAbJ--23" value="" style="line;html=1;strokeWidth=1;align=left;verticalAlign=middle;spacingTop=-1;spacingLeft=3;spacingRight=3;rotatable=0;labelPosition=right;points=[];portConstraint=eastwest;" parent="zkfFHV4jXpPFQw0GAbJ--17" vertex="1">
          <mxGeometry y="74" width="620" height="8" as="geometry" />
        </mxCell>
        <mxCell id="qP_oWAMBrOVo8oeJrDwM-4" value="+UserSettings()&#xa;+UserSettings(in monthlyIncome:double, in yearlyIncome:double, in name:String)&#xa;+getMonthlyIncome(out monthlyIncome:double)&#xa;+setMonthlyIncome(inout monthlyIncome:double)&#xa;+getYearlyIncome(out yearlyIncome:double)&#xa;+setYearlyIncome(inout yearlyIncome:double)&#xa;+editSettings(in currentUser:User, inout applicationSettings:AppSettings)&#xa;" style="text;align=left;verticalAlign=top;spacingLeft=4;spacingRight=4;overflow=hidden;rotatable=0;points=[[0,0.5],[1,0.5]];portConstraint=eastwest;fontSize=16;" parent="zkfFHV4jXpPFQw0GAbJ--17" vertex="1">
          <mxGeometry y="82" width="620" height="168" as="geometry" />
        </mxCell>
        <mxCell id="zkfFHV4jXpPFQw0GAbJ--13" value="Settings{abstract}" style="swimlane;fontStyle=0;align=center;verticalAlign=top;childLayout=stackLayout;horizontal=1;startSize=26;horizontalStack=0;resizeParent=1;resizeLast=0;collapsible=1;marginBottom=0;rounded=0;shadow=0;strokeWidth=1;fontSize=17;" parent="WIyWlLk6GJQsqaUBKTNV-1" vertex="1">
          <mxGeometry x="900" y="540" width="560" height="200" as="geometry">
            <mxRectangle x="340" y="380" width="170" height="26" as="alternateBounds" />
          </mxGeometry>
        </mxCell>
        <mxCell id="zkfFHV4jXpPFQw0GAbJ--14" value="-type:String" style="text;align=left;verticalAlign=top;spacingLeft=4;spacingRight=4;overflow=hidden;rotatable=0;points=[[0,0.5],[1,0.5]];portConstraint=eastwest;fontSize=16;" parent="zkfFHV4jXpPFQw0GAbJ--13" vertex="1">
          <mxGeometry y="26" width="560" height="26" as="geometry" />
        </mxCell>
        <mxCell id="zkfFHV4jXpPFQw0GAbJ--15" value="&lt;span style=&quot;color: rgba(0, 0, 0, 0); font-family: monospace; font-size: 0px; background-color: rgb(251, 251, 251);&quot;&gt;%3CmxGraphModel%3E%3Croot%3E%3CmxCell%20id%3D%220%22%2F%3E%3CmxCell%20id%3D%221%22%20parent%3D%220%22%2F%3E%3CmxCell%20id%3D%222%22%20value%3D%22-monthlyIncome%20%3A%20double%22%20style%3D%22text%3Balign%3Dleft%3BverticalAlign%3Dtop%3BspacingLeft%3D4%3BspacingRight%3D4%3Boverflow%3Dhidden%3Brotatable%3D0%3Bpoints%3D%5B%5B0%2C0.5%5D%2C%5B1%2C0.5%5D%5D%3BportConstraint%3Deastwest%3B%22%20vertex%3D%221%22%20parent%3D%221%22%3E%3CmxGeometry%20x%3D%22580%22%20y%3D%22246%22%20width%3D%22160%22%20height%3D%2226%22%20as%3D%22geometry%22%2F%3E%3C%2FmxCell%3E%3C%2Froot%3E%3C%2FmxGraphModel%3E&lt;/span&gt;" style="line;html=1;strokeWidth=1;align=left;verticalAlign=middle;spacingTop=-1;spacingLeft=3;spacingRight=3;rotatable=0;labelPosition=right;points=[];portConstraint=eastwest;" parent="zkfFHV4jXpPFQw0GAbJ--13" vertex="1">
          <mxGeometry y="52" width="560" height="8" as="geometry" />
        </mxCell>
        <mxCell id="hj19rtR9D6KsvlHhjiHy-9" value="+Settings()" style="text;align=left;verticalAlign=top;spacingLeft=4;spacingRight=4;overflow=hidden;rotatable=0;points=[[0,0.5],[1,0.5]];portConstraint=eastwest;fontSize=16;" parent="zkfFHV4jXpPFQw0GAbJ--13" vertex="1">
          <mxGeometry y="60" width="560" height="26" as="geometry" />
        </mxCell>
        <mxCell id="hj19rtR9D6KsvlHhjiHy-10" value="+Settings(in type:String)&#xa;+getType(out type:String)&#xa;+setType(inout type:String)&#xa;+editSettings(in currentUser:User, inout applicationSettings:AppSettings)" style="text;align=left;verticalAlign=top;spacingLeft=4;spacingRight=4;overflow=hidden;rotatable=0;points=[[0,0.5],[1,0.5]];portConstraint=eastwest;fontSize=16;" parent="zkfFHV4jXpPFQw0GAbJ--13" vertex="1">
          <mxGeometry y="86" width="560" height="114" as="geometry" />
        </mxCell>
        <mxCell id="hj19rtR9D6KsvlHhjiHy-4" value="" style="endArrow=none;html=1;rounded=0;exitX=0.5;exitY=0;exitDx=0;exitDy=0;" parent="WIyWlLk6GJQsqaUBKTNV-1" source="zkfFHV4jXpPFQw0GAbJ--17" edge="1">
          <mxGeometry width="50" height="50" relative="1" as="geometry">
            <mxPoint x="490.0000000000001" y="781.95" as="sourcePoint" />
            <mxPoint x="1340" y="850" as="targetPoint" />
          </mxGeometry>
        </mxCell>
        <mxCell id="qP_oWAMBrOVo8oeJrDwM-0" value="" style="endArrow=none;html=1;rounded=0;exitX=0.51;exitY=-0.01;exitDx=0;exitDy=0;exitPerimeter=0;" parent="WIyWlLk6GJQsqaUBKTNV-1" source="zkfFHV4jXpPFQw0GAbJ--6" edge="1">
          <mxGeometry width="50" height="50" relative="1" as="geometry">
            <mxPoint x="400" y="645" as="sourcePoint" />
            <mxPoint x="720" y="850" as="targetPoint" />
          </mxGeometry>
        </mxCell>
        <mxCell id="qP_oWAMBrOVo8oeJrDwM-5" value="Expense" style="swimlane;fontStyle=2;align=center;verticalAlign=top;childLayout=stackLayout;horizontal=1;startSize=30;horizontalStack=0;resizeParent=1;resizeLast=0;collapsible=1;marginBottom=0;rounded=0;shadow=0;strokeWidth=1;fontSize=18;" parent="WIyWlLk6GJQsqaUBKTNV-1" vertex="1">
          <mxGeometry x="40" y="730" width="600" height="370" as="geometry">
            <mxRectangle x="230" y="140" width="160" height="26" as="alternateBounds" />
          </mxGeometry>
        </mxCell>
        <mxCell id="qP_oWAMBrOVo8oeJrDwM-6" value="- name: String&#xa;- amount: double&#xa;- category: String&#xa;- isRecurring: boolean&#xa;- timestamp: String" style="text;align=left;verticalAlign=top;spacingLeft=4;spacingRight=4;overflow=hidden;rotatable=0;points=[[0,0.5],[1,0.5]];portConstraint=eastwest;rounded=0;shadow=0;html=0;fontSize=16;" parent="qP_oWAMBrOVo8oeJrDwM-5" vertex="1">
          <mxGeometry y="30" width="600" height="74" as="geometry" />
        </mxCell>
        <mxCell id="qP_oWAMBrOVo8oeJrDwM-9" value="" style="line;html=1;strokeWidth=1;align=left;verticalAlign=middle;spacingTop=-1;spacingLeft=3;spacingRight=3;rotatable=0;labelPosition=right;points=[];portConstraint=eastwest;" parent="qP_oWAMBrOVo8oeJrDwM-5" vertex="1">
          <mxGeometry y="104" width="600" height="20" as="geometry" />
        </mxCell>
        <mxCell id="qP_oWAMBrOVo8oeJrDwM-10" value="+ Expense()&#xa;+ Expense(name: String, amount: double, category: String, isRecurring: boolean)&#xa;+ getTimestamp(): String&#xa;+ getName(): String&#xa;+ setName(name: String): void&#xa;+ getAmount(): double&#xa;+ setAmount(amount: double): void&#xa;+ getCategory(): String&#xa;+ setCategory(category: String): void&#xa;+ getIsRecurring(): boolean+ setRecurring(recurring: boolean): void&#xa;+ createExpense(name: String, amount: double, category: String, isRecurring: boolean): Expense&#xa;+ toString(): String" style="text;align=left;verticalAlign=top;spacingLeft=4;spacingRight=4;overflow=hidden;rotatable=0;points=[[0,0.5],[1,0.5]];portConstraint=eastwest;fontSize=16;" parent="qP_oWAMBrOVo8oeJrDwM-5" vertex="1">
          <mxGeometry y="124" width="600" height="246" as="geometry" />
        </mxCell>
        <mxCell id="qP_oWAMBrOVo8oeJrDwM-13" value="Main" style="swimlane;fontStyle=2;align=center;verticalAlign=top;childLayout=stackLayout;horizontal=1;startSize=30;horizontalStack=0;resizeParent=1;resizeLast=0;collapsible=1;marginBottom=0;rounded=0;shadow=0;strokeWidth=1;fontSize=18;" parent="WIyWlLk6GJQsqaUBKTNV-1" vertex="1">
          <mxGeometry x="950" y="120" width="280" height="80" as="geometry">
            <mxRectangle x="230" y="140" width="160" height="26" as="alternateBounds" />
          </mxGeometry>
        </mxCell>
        <mxCell id="qP_oWAMBrOVo8oeJrDwM-17" value="" style="line;html=1;strokeWidth=1;align=left;verticalAlign=middle;spacingTop=-1;spacingLeft=3;spacingRight=3;rotatable=0;labelPosition=right;points=[];portConstraint=eastwest;" parent="qP_oWAMBrOVo8oeJrDwM-13" vertex="1">
          <mxGeometry y="30" width="280" height="8" as="geometry" />
        </mxCell>
        <mxCell id="qP_oWAMBrOVo8oeJrDwM-18" value="+main(String[] args)&#xa;" style="text;align=left;verticalAlign=top;spacingLeft=4;spacingRight=4;overflow=hidden;rotatable=0;points=[[0,0.5],[1,0.5]];portConstraint=eastwest;fontSize=16;" parent="qP_oWAMBrOVo8oeJrDwM-13" vertex="1">
          <mxGeometry y="38" width="280" height="26" as="geometry" />
        </mxCell>
        <mxCell id="qP_oWAMBrOVo8oeJrDwM-21" value="DisplayMenus" style="swimlane;fontStyle=2;align=center;verticalAlign=top;childLayout=stackLayout;horizontal=1;startSize=26;horizontalStack=0;resizeParent=1;resizeLast=0;collapsible=1;marginBottom=0;rounded=0;shadow=0;strokeWidth=1;fontSize=17;" parent="WIyWlLk6GJQsqaUBKTNV-1" vertex="1">
          <mxGeometry x="930" y="250" width="680" height="264" as="geometry">
            <mxRectangle x="230" y="140" width="160" height="26" as="alternateBounds" />
          </mxGeometry>
        </mxCell>
        <mxCell id="qP_oWAMBrOVo8oeJrDwM-25" value="" style="line;html=1;strokeWidth=1;align=left;verticalAlign=middle;spacingTop=-1;spacingLeft=3;spacingRight=3;rotatable=0;labelPosition=right;points=[];portConstraint=eastwest;" parent="qP_oWAMBrOVo8oeJrDwM-21" vertex="1">
          <mxGeometry y="26" width="680" height="8" as="geometry" />
        </mxCell>
        <mxCell id="qP_oWAMBrOVo8oeJrDwM-26" value="+ DisplayMenus() &#xa;+ mainMenu(input: Scanner, currentUser: User, applicationSettings: AppSettings): void &#xa;+ recurringExpensesMenu(input: Scanner, currentUser: User): void &#xa;+ nonRecurringExpensesMenu(input: Scanner, currentUser: User): void&#xa;+ displayOverallTotal(currentUser: User): void &#xa;+ displayYearlyOverview(currentUser: User): void &#xa;+ searchMenu(input: Scanner, currentUser: User, recurring: boolean): void &#xa;+ settingsMenu(input: Scanner, currentUser: User, applicationSettings: AppSettings): void &#xa;+ addExpenseMenu(currentUser: User): void &#xa;+ deleteExpenseMenu(currentUser: User, recurring: boolean): void &#xa;+ editExpenseMenu(currentUser: User, recurring: boolean): void" style="text;align=left;verticalAlign=top;spacingLeft=4;spacingRight=4;overflow=hidden;rotatable=0;points=[[0,0.5],[1,0.5]];portConstraint=eastwest;fontSize=16;" parent="qP_oWAMBrOVo8oeJrDwM-21" vertex="1">
          <mxGeometry y="34" width="680" height="230" as="geometry" />
        </mxCell>
        <mxCell id="v6PnTdHGzszDzuEM2gtV-0" value="" style="endArrow=none;html=1;rounded=0;" edge="1" parent="WIyWlLk6GJQsqaUBKTNV-1">
          <mxGeometry width="50" height="50" relative="1" as="geometry">
            <mxPoint x="1340" y="850" as="sourcePoint" />
            <mxPoint x="720" y="850" as="targetPoint" />
          </mxGeometry>
        </mxCell>
        <mxCell id="v6PnTdHGzszDzuEM2gtV-5" value="MenuColors" style="swimlane;fontStyle=2;align=center;verticalAlign=top;childLayout=stackLayout;horizontal=1;startSize=35;horizontalStack=0;resizeParent=1;resizeLast=0;collapsible=1;marginBottom=0;rounded=0;shadow=0;strokeWidth=1;fontSize=18;" vertex="1" parent="WIyWlLk6GJQsqaUBKTNV-1">
          <mxGeometry x="1730" y="55" width="280" height="515" as="geometry">
            <mxRectangle x="230" y="140" width="160" height="26" as="alternateBounds" />
          </mxGeometry>
        </mxCell>
        <mxCell id="v6PnTdHGzszDzuEM2gtV-7" value="+RESET: String&#xa;+RED_TEXT: String&#xa;+GREEN_TEXT: String&#xa;+YELLOW_TEXT: String&#xa;+BLUE_TEXT: String&#xa;+PURPLE_TEXT: String&#xa;+CYAN_TEXT: String&#xa;+WHITE_TEXT: String&#xa;+RED_BACKGROUND: String&#xa;+GREEN_BACKGROUND: String&#xa;+YELLOW_BACKGROUND: String&#xa;+BLUE_BACKGROUND: String&#xa;+PURPLE_BACKGROUND: String&#xa;+CYAN_BACKGROUND: String&#xa;+WHITE_BACKGROUND: String&#xa;+BOLD: String&#xa;+UNDERLINE: String" style="text;align=left;verticalAlign=top;spacingLeft=4;spacingRight=4;overflow=hidden;rotatable=0;points=[[0,0.5],[1,0.5]];portConstraint=eastwest;fontSize=16;" vertex="1" parent="v6PnTdHGzszDzuEM2gtV-5">
          <mxGeometry y="35" width="280" height="325" as="geometry" />
        </mxCell>
        <mxCell id="v6PnTdHGzszDzuEM2gtV-6" value="" style="line;html=1;strokeWidth=1;align=left;verticalAlign=middle;spacingTop=-1;spacingLeft=3;spacingRight=3;rotatable=0;labelPosition=right;points=[];portConstraint=eastwest;" vertex="1" parent="v6PnTdHGzszDzuEM2gtV-5">
          <mxGeometry y="360" width="280" height="58" as="geometry" />
        </mxCell>
        <mxCell id="v6PnTdHGzszDzuEM2gtV-8" value="-MenuColors() " style="text;align=left;verticalAlign=top;spacingLeft=4;spacingRight=4;overflow=hidden;rotatable=0;points=[[0,0.5],[1,0.5]];portConstraint=eastwest;fontSize=16;" vertex="1" parent="v6PnTdHGzszDzuEM2gtV-5">
          <mxGeometry y="418" width="280" height="22" as="geometry" />
        </mxCell>
        <mxCell id="v6PnTdHGzszDzuEM2gtV-9" value="" style="endArrow=none;html=1;rounded=0;exitX=0.536;exitY=-0.003;exitDx=0;exitDy=0;exitPerimeter=0;" edge="1" parent="WIyWlLk6GJQsqaUBKTNV-1" source="qP_oWAMBrOVo8oeJrDwM-5">
          <mxGeometry width="50" height="50" relative="1" as="geometry">
            <mxPoint x="360" y="720" as="sourcePoint" />
            <mxPoint x="360" y="620" as="targetPoint" />
          </mxGeometry>
        </mxCell>
        <mxCell id="v6PnTdHGzszDzuEM2gtV-11" value="*" style="text;align=left;verticalAlign=top;spacingLeft=4;spacingRight=4;overflow=hidden;rotatable=0;points=[[0,0.5],[1,0.5]];portConstraint=eastwest;fontSize=26;" vertex="1" parent="WIyWlLk6GJQsqaUBKTNV-1">
          <mxGeometry x="370" y="700" width="550" height="122" as="geometry" />
        </mxCell>
        <mxCell id="v6PnTdHGzszDzuEM2gtV-12" value="1" style="text;align=left;verticalAlign=top;spacingLeft=4;spacingRight=4;overflow=hidden;rotatable=0;points=[[0,0.5],[1,0.5]];portConstraint=eastwest;fontSize=14;" vertex="1" parent="WIyWlLk6GJQsqaUBKTNV-1">
          <mxGeometry x="360" y="620" width="120" height="50" as="geometry" />
        </mxCell>
        <mxCell id="v6PnTdHGzszDzuEM2gtV-16" value="" style="endArrow=none;html=1;rounded=0;exitX=0.865;exitY=0.996;exitDx=0;exitDy=0;exitPerimeter=0;entryX=0;entryY=0.5;entryDx=0;entryDy=0;" edge="1" parent="WIyWlLk6GJQsqaUBKTNV-1" source="zkfFHV4jXpPFQw0GAbJ--5" target="hj19rtR9D6KsvlHhjiHy-10">
          <mxGeometry width="50" height="50" relative="1" as="geometry">
            <mxPoint x="785.96" y="775.8" as="sourcePoint" />
            <mxPoint x="820" y="700" as="targetPoint" />
          </mxGeometry>
        </mxCell>
        <mxCell id="v6PnTdHGzszDzuEM2gtV-19" value="1" style="text;align=left;verticalAlign=top;spacingLeft=4;spacingRight=4;overflow=hidden;rotatable=0;points=[[0,0.5],[1,0.5]];portConstraint=eastwest;fontSize=14;" vertex="1" parent="WIyWlLk6GJQsqaUBKTNV-1">
          <mxGeometry x="740" y="630" width="40" height="30" as="geometry" />
        </mxCell>
        <mxCell id="v6PnTdHGzszDzuEM2gtV-20" value="1" style="text;align=left;verticalAlign=top;spacingLeft=4;spacingRight=4;overflow=hidden;rotatable=0;points=[[0,0.5],[1,0.5]];portConstraint=eastwest;fontSize=14;" vertex="1" parent="WIyWlLk6GJQsqaUBKTNV-1">
          <mxGeometry x="860" y="690" width="40" height="30" as="geometry" />
        </mxCell>
      </root>
    </mxGraphModel>
  </diagram>
</mxfile>
